<svg id="Layer_1" data-name="Layer 1" xmlns="http://www.w3.org/2000/svg" xmlns:xlink="http://www.w3.org/1999/xlink" viewBox="0 0 234 105"><defs><style>.cls-1{fill:none;}.cls-2{clip-path:url(#clip-path);}.cls-3{opacity:0.2;}.cls-4{clip-path:url(#clip-path-2);}.cls-5{clip-path:url(#clip-path-3);}.cls-6{clip-path:url(#clip-path-4);}.cls-7{clip-path:url(#clip-path-5);}.cls-8{clip-path:url(#clip-path-6);}.cls-9{clip-path:url(#clip-path-7);}.cls-10{clip-path:url(#clip-path-8);}.cls-11{clip-path:url(#clip-path-9);}.cls-12{clip-path:url(#clip-path-10);}</style><clipPath id="clip-path"><rect class="cls-1" x="87.36" y="17.79" width="60.26" height="69.23"/></clipPath><clipPath id="clip-path-2"><rect class="cls-1" x="87.98" y="18.4" width="30.35" height="18.21"/></clipPath><clipPath id="clip-path-3"><rect class="cls-1" x="87.98" y="34.97" width="59.02" height="34.82"/></clipPath><clipPath id="clip-path-4"><rect class="cls-1" x="116.68" y="18.4" width="30.31" height="18.21"/></clipPath><clipPath id="clip-path-5"><rect class="cls-1" x="87.98" y="34.97" width="59.02" height="34.82"/></clipPath><clipPath id="clip-path-6"><rect class="cls-1" x="87.98" y="68.15" width="30.35" height="18.25"/></clipPath><clipPath id="clip-path-7"><rect class="cls-1" x="116.68" y="68.14" width="30.31" height="18.25"/></clipPath><clipPath id="clip-path-8"><rect class="cls-1" x="87.98" y="34.97" width="1.64" height="34.82"/></clipPath><clipPath id="clip-path-9"><rect class="cls-1" x="145.35" y="34.97" width="1.65" height="34.82"/></clipPath><clipPath id="clip-path-10"><rect class="cls-1" x="116.68" y="18.4" width="1.64" height="67.9"/></clipPath></defs><title>ARkit_Badges</title><g class="cls-2"><path d="M125.85,25.5a1.44,1.44,0,0,1-.72-.19l-7.63-4.42-7.66,4.42a1.44,1.44,0,1,1-1.44-2.5L116.79,18a1.43,1.43,0,0,1,1.44,0l8.35,4.83a1.44,1.44,0,0,1-.72,2.69"/><path d="M117.5,63.49A1.44,1.44,0,0,1,116.06,62V52.38a1.44,1.44,0,1,1,2.88,0V62a1.44,1.44,0,0,1-1.44,1.44"/><path d="M88.8,46.89a1.44,1.44,0,0,1-1.44-1.44V35.79a1.44,1.44,0,1,1,2.88,0v9.66a1.44,1.44,0,0,1-1.44,1.44"/><path d="M146.17,46.89a1.44,1.44,0,0,1-1.44-1.44V35.79a1.44,1.44,0,1,1,2.88,0v9.66a1.44,1.44,0,0,1-1.44,1.44"/><path d="M146.18,70.41A1.44,1.44,0,0,1,144.74,69V59.3a1.44,1.44,0,0,1,1.44-1.44h0a1.44,1.44,0,0,1,1.44,1.44V69a1.44,1.44,0,0,1-1.44,1.44Z"/><path d="M88.8,70.41A1.44,1.44,0,0,1,87.36,69V59.3a1.44,1.44,0,1,1,2.88,0V69a1.44,1.44,0,0,1-1.44,1.44"/><path d="M117.5,31.2a1.44,1.44,0,0,1-1.44-1.44V19.23a1.44,1.44,0,1,1,2.88,0V29.76a1.44,1.44,0,0,1-1.44,1.44"/><path d="M117.5,87a1.44,1.44,0,0,1-1.44-1.44V75.91a1.44,1.44,0,1,1,2.88,0v9.66A1.44,1.44,0,0,1,117.5,87"/><path d="M117.5,87a1.45,1.45,0,0,1-.72-.19L108.38,82a1.44,1.44,0,0,1,1.44-2.5l7.69,4.45,7.58-4.39A1.44,1.44,0,0,1,126.53,82l-8.3,4.81a1.43,1.43,0,0,1-.72.19"/><path d="M117.5,53.82a1.45,1.45,0,0,1-.72-.19l-8.38-4.84a1.44,1.44,0,0,1,1.44-2.5l7.66,4.42,7.63-4.42a1.44,1.44,0,0,1,1.44,2.49l-8.35,4.84a1.43,1.43,0,0,1-.72.19"/><path d="M137.81,42.07a1.44,1.44,0,0,1-.72-2.69l8.36-4.83a1.44,1.44,0,0,1,1.44,2.5l-8.36,4.83a1.44,1.44,0,0,1-.72.19"/><path d="M146.17,37.23a1.43,1.43,0,0,1-.72-.19l-8.37-4.84a1.44,1.44,0,0,1,1.44-2.5l8.37,4.84a1.44,1.44,0,0,1-.72,2.69"/><path d="M97.16,42.07a1.44,1.44,0,0,1-.72-.19L88.08,37a1.44,1.44,0,0,1,1.44-2.5l8.37,4.83a1.44,1.44,0,0,1-.72,2.69"/><path d="M88.8,37.23a1.44,1.44,0,0,1-.72-2.69l8.36-4.82a1.44,1.44,0,0,1,1.44,2.5L89.52,37a1.45,1.45,0,0,1-.72.19"/><path d="M137.8,75.24a1.44,1.44,0,0,1-.72-2.69l8.38-4.83a1.44,1.44,0,1,1,1.44,2.5l-8.38,4.83a1.44,1.44,0,0,1-.72.19"/><path d="M146.17,70.41a1.43,1.43,0,0,1-.72-.19l-8.37-4.83a1.44,1.44,0,0,1,1.44-2.5l8.37,4.83a1.44,1.44,0,0,1-.72,2.69"/><path d="M97.16,75.25a1.44,1.44,0,0,1-.72-.19l-8.37-4.84a1.44,1.44,0,0,1,1.44-2.5l8.37,4.84a1.44,1.44,0,0,1-.72,2.69"/><path d="M88.8,70.41a1.44,1.44,0,0,1-.72-2.69l8.35-4.84a1.44,1.44,0,0,1,1.44,2.5l-8.35,4.83a1.44,1.44,0,0,1-.72.19"/><g class="cls-3"><g class="cls-4"><path d="M88.8,36.61a.82.82,0,0,1-.41-1.53l28.71-16.57a.82.82,0,0,1,.82,1.42L89.21,36.5a.82.82,0,0,1-.41.11"/></g></g><g class="cls-3"><g class="cls-5"><path d="M88.8,69.79a.82.82,0,0,1-.41-1.53l57.37-33.18a.82.82,0,0,1,.82,1.42L89.21,69.68a.82.82,0,0,1-.41.11"/></g></g><g class="cls-3"><g class="cls-6"><path d="M146.17,36.61a.82.82,0,0,1-.41-.11L117.09,19.94a.82.82,0,0,1,.82-1.42l28.67,16.57a.82.82,0,0,1-.41,1.53"/></g></g><g class="cls-3"><g class="cls-7"><path d="M146.17,69.79a.81.81,0,0,1-.41-.11L88.39,36.5a.82.82,0,0,1,.82-1.42l57.38,33.18a.82.82,0,0,1-.41,1.53"/></g></g><g class="cls-3"><g class="cls-8"><path d="M117.5,86.4a.82.82,0,0,1-.41-.11L88.39,69.68a.82.82,0,0,1,.82-1.42l28.71,16.61a.82.82,0,0,1-.41,1.53"/></g></g><g class="cls-3"><g class="cls-9"><path d="M117.51,86.4a.82.82,0,0,1-.41-1.53l28.67-16.61a.82.82,0,0,1,.82,1.42L117.92,86.29a.82.82,0,0,1-.41.11"/></g></g><g class="cls-3"><g class="cls-10"><path d="M88.8,69.79A.82.82,0,0,1,88,69V35.79a.82.82,0,1,1,1.64,0V69a.82.82,0,0,1-.82.82"/></g></g><g class="cls-3"><g class="cls-11"><path d="M146.18,69.79a.82.82,0,0,1-.82-.82V35.79a.82.82,0,1,1,1.64,0V69a.82.82,0,0,1-.82.82"/></g></g><g class="cls-3"><g class="cls-12"><path d="M117.5,86.3a.82.82,0,0,1-.82-.82V19.23a.82.82,0,0,1,1.64,0V85.48a.82.82,0,0,1-.82.82"/></g></g></g></svg>